<svg xmlns="http://www.w3.org/2000/svg" viewBox="0 0 24 24"><defs><style>.a{fill:none;}.b{fill:#4f4f4f;}</style></defs><title>Cross_black</title><rect class="a" y="0.03" width="24" height="24"/><path class="b" d="M19.41,20a.57.57,0,0,1-.41-.18l-7-7-7,7a.56.56,0,0,1-.82,0A.5.5,0,0,1,4,19.46.6.6,0,0,1,4.18,19l7-7-7-7A.51.51,0,0,1,4,4.65a.62.62,0,0,1,.18-.44A.53.53,0,0,1,4.58,4,.6.6,0,0,1,5,4.21l7,7,7-7a.53.53,0,0,1,.4-.18.64.64,0,0,1,.42.18A.51.51,0,0,1,20,4.6a.62.62,0,0,1-.18.44l-7,7,7,7a.51.51,0,0,1,.18.39.6.6,0,0,1-.18.43A.57.57,0,0,1,19.41,20Z"/></svg>